<?xml version="1.0" encoding="UTF-8"?>
<svg xmlns="http://www.w3.org/2000/svg" width="100%" height="100%" version="1.1">

<symbol id="atom-alt" viewBox="0 0 448 512"><path fill="currentColor" d="M394.06157,256.00111c55.56193,84.484,71.15552,164.23356,32.84342,202.46775C412.49888,472.81254,392.40534,480,367.87434,480c-21.18728,0-45.562-5.34372-72.43676-16.06242-23.18726-9.25-47.312-22.71864-71.43677-38.57793-24.156,15.87492-48.28075,29.328-71.43677,38.57793C125.68932,474.65628,101.25207,480,80.12729,480c-24.56225,0-44.6558-7.18746-59.03065-21.53114C-17.21547,420.23467-1.62188,340.48507,53.9088,256.00111-1.62188,171.51715-17.21547,91.76755,21.09664,53.53336,47.90887,26.81474,94.53339,24.92413,152.564,48.06464c23.156,9.25,47.28077,22.71864,71.43677,38.57793,24.12476-15.87492,48.24951-29.328,71.43677-38.57793C353.562,24.89288,400.18651,26.86162,426.905,53.53336,465.21709,91.76755,449.6235,171.51715,394.06157,256.00111ZM195.7511,405.31287A619.164,619.164,0,0,1,130.56427,349.235a620.957,620.957,0,0,1-56.87442-64.96843C30.87779,353.51625,20.81539,412.95346,43.75266,435.844c16.93733,16.828,52.187,16.24992,96.874-1.60937C158.47023,427.094,177.06379,416.87531,195.7511,405.31287ZM73.7211,227.73562a609.0454,609.0454,0,0,1,122.03-121.04627c-18.68731-11.56244-37.24962-21.78114-55.12443-28.92173C117.5644,68.56454,97.03336,63.95518,80.18979,63.95518c-15.78109,0-28.24972,4.06248-36.40588,12.20307C20.81539,99.06439,30.909,158.486,73.7211,227.73562ZM224.00081,386.73484a585.00847,585.00847,0,0,0,70.74928-60.10908,581.92356,581.92356,0,0,0,60.43688-70.609,579.55986,579.55986,0,0,0-60.43688-70.609,585.9904,585.9904,0,0,0-70.74928-60.10908,583.82754,583.82754,0,0,0-70.78052,60.10908,576.41233,576.41233,0,0,0-60.40563,70.609,578.75052,578.75052,0,0,0,60.40563,70.609A586.65879,586.65879,0,0,0,224.00081,386.73484Zm56.12443-130.73373a56.12456,56.12456,0,1,1-56.12443-55.99972A56.1343,56.1343,0,0,1,280.12524,256.00111Zm-32.09342,0a24.04668,24.04668,0,1,0-24.031,23.99988A24.0027,24.0027,0,0,0,248.03182,256.00111Zm4.18745-149.31176a616.29534,616.29534,0,0,1,65.21809,56.07785,620.54665,620.54665,0,0,1,56.84317,64.96842c42.81206-69.24965,52.9057-128.68686,29.93719-151.57737-16.84358-16.79679-52.12447-16.21867-96.84276,1.60937C289.50014,84.90821,270.93783,95.14253,252.21927,106.68935ZM374.28053,284.26659A624.20736,624.20736,0,0,1,317.43736,349.235a622.60731,622.60731,0,0,1-65.21809,56.07785c18.68731,11.56244,37.28087,21.78114,55.15569,28.92173,44.687,17.85929,79.96793,18.42179,96.84276,1.60937C427.18623,412.95346,417.09259,353.51625,374.28053,284.26659Z" class=""></path></symbol>

<symbol id="radiation" viewBox="0 0 496 512"><path fill="currentColor" d="M247.9 320c35.3 0 64-28.7 64-64s-28.7-64-64-64-64 28.7-64 64 28.7 64 64 64zm0-96c17.6 0 32 14.4 32 32s-14.4 32-32 32-32-14.4-32-32 14.4-32 32-32zm51.2 113.2c-14.9 9.2-32.4 14.8-51.2 14.8s-36.3-5.6-51.2-14.8L133.8 437c-10.2 16.2-4.2 38.2 13.5 45.9C178 496.4 212 504 247.9 504s69.9-7.6 100.7-21.1c17.6-7.7 23.7-29.7 13.5-45.9l-63-99.8zM247.9 472c-30.4 0-59.8-6.2-86.8-18.1l47.9-76c12.6 4 25.7 6.1 38.8 6.1 13.3 0 26.4-2.1 39-6.1l48.6 75.8c-27.7 12.1-57.1 18.3-87.5 18.3zM32.5 256H151c0-34.3 18.3-64.2 45.7-81.2l-62.8-99.6c-6.2-9.8-17-15.3-27.8-15.3-7.1 0-14.2 2.3-20.1 7.3-45.2 38-76.7 91.7-85.7 152.5-2.9 19.2 12.6 36.3 32.2 36.3zm73.9-163.8l47.9 75.8c-15.2 15.7-26 35-31.5 56H32.5l-.3.4c7.6-51.6 34.2-98.7 74.2-132.2zM344.8 256h118.5c19.6 0 35.1-17.1 32.3-36.3-9-60.9-40.5-114.5-85.7-152.5-5.9-4.9-13-7.3-20.1-7.3-10.8 0-21.6 5.4-27.8 15.3l-62.8 99.6c27.3 17 45.6 46.9 45.6 81.2zm44.1-164.4c40.5 34.1 67 81.2 74.4 132.4H373c-5.5-21.1-16.4-40.3-31.6-56.1l47.5-76.3z" class=""></path></symbol>

<symbol id="female" viewBox="0 0 256 512"><path fill="currentColor" d="M254.648 340.891l-39.909-164.276a48.18 48.18 0 0 0-16.794-26.583 47.458 47.458 0 0 0-4.554-3.208C207.438 131.225 216 110.594 216 88c0-48.523-39.477-88-88-88S40 39.477 40 88c0 22.594 8.562 43.225 22.609 58.824a47.405 47.405 0 0 0-4.554 3.208 48.184 48.184 0 0 0-16.794 26.583L1.352 340.891C-5.868 370.559 16.716 400 48.047 400H61v59c0 29.224 23.776 53 53 53h28c29.224 0 53-23.776 53-53v-59h12.952c31.329 0 53.917-29.436 46.696-59.109zM128 32c30.928 0 56 25.072 56 56s-25.072 56-56 56-56-25.072-56-56 25.072-56 56-56zm80 336h-45v91c0 11.598-9.402 21-21 21h-28c-11.598 0-21-9.402-21-21v-91H48c-10.259 0-17.877-9.539-15.602-19.546l40-164.454A16 16 0 0 1 88 171.546h12.351a88.015 88.015 0 0 0 55.299 0H168A16 16 0 0 1 183.602 184l40 164.454C225.876 358.458 218.262 368 208 368z" class=""></path></symbol>

<symbol id="couch" viewBox="0 0 640 512"><path fill="currentColor" d="M576 193.9v-33.7c0-53.1-43-96.2-96-96.2H160c-53 0-96 43.1-96 96.2v33.7c-36.5 7.5-64 39.8-64 78.6 0 25.1 12.1 48.8 32 63.8v79.6c0 17.7 14.3 32.1 32 32.1h64c17.3 0 31.3-14.7 31.8-32h320.4c.5 17.3 14.5 32 31.8 32h64c17.7 0 32-14.4 32-32.1v-79.6c19.9-15.1 32-38.7 32-63.8 0-38.7-27.5-71.1-64-78.6zm-448 222H64v-97.4c-17.1-10-32-21.1-32-46 0-26.5 21.5-48.1 48-48.1h32c8.8 0 16 7.2 16 16v175.5zM480 384H160v-95.5h320V384zm0-143.6V256H160v-15.6c0-26.5-21.5-48.1-48-48.1H96v-32.1c0-35.4 28.7-64.1 64-64.1h320c35.3 0 64 28.8 64 64.1v32.1h-16c-26.5 0-48 21.6-48 48.1zm96 78.1v97.4h-64V240.4c0-8.8 7.2-16 16-16h32c26.5 0 48 21.6 48 48.1 0 23.9-13.9 35.4-32 46z" class=""></path></symbol>

</svg>