<svg xmlns="http://www.w3.org/2000/svg">

  <symbol id="wifi" viewBox="0 0 640 512"><path fill="currentColor" d="M320 368c17.64 0 32 14.36 32 32s-14.36 32-32 32-32-14.36-32-32 14.35-32 32-32m0-48c-44.18 0-80 35.82-80 80s35.82 80 80 80 80-35.82 80-80-35.82-80-80-80zm204.69-31.83c4.62-4.87 4.38-12.64-.59-17.15-115.74-105.32-292.41-105.38-408.22 0-4.96 4.51-5.2 12.28-.59 17.15l16.47 17.37c4.46 4.71 11.81 4.95 16.62.6 97.44-88.13 245.68-88.21 343.22 0 4.81 4.35 12.16 4.1 16.62-.6l16.47-17.37zm111.42-133.98C457.86-8.86 181.84-8.59 3.89 154.19c-4.94 4.52-5.22 12.14-.57 16.95l16.6 17.18c4.52 4.68 12.01 4.93 16.81.54 159.59-145.79 406.82-145.91 566.54 0 4.81 4.39 12.29 4.13 16.81-.54l16.6-17.18c4.65-4.81 4.37-12.44-.57-16.95z" class=""></path></symbol>

  <symbol id="american-sign" viewBox="0 0 640 512"><path fill="currentColor" d="M635.124 210.818c-.06-.124-40.19-80.369-40.19-80.369-11.371-22.737-39.883-33.58-64.432-21.309l-.048.024-51.577 25.889s-76.369-7.04-77.356-7.04c-18.703 0-36.638 4.3-52.695 12.51-6.622-8.822-14.274-14.06-23.49-18.275 11.395-35.618-14.806-73.459-53.504-73.192C268.554 22.553 245.872 0 216.271 0a56.096 56.096 0 0 0-35.654 12.824c-45.389 37.273-74.398 89.592-82.391 146.56l-29.668 53.507s-44.692 25.442-44.809 25.51C2.06 251.113-6.128 278.463 4.874 301.198c.061.125 40.19 80.371 40.19 80.371 11.462 22.914 40.052 33.495 64.433 21.309l.048-.024 51.594-25.897c76.879 7.049 76.948 7.049 78.84 7.049 18.074 0 35.583-4.459 51.181-12.527 6.627 8.835 14.283 14.074 23.502 18.292-11.848 37.033 17.128 73.849 53.528 73.376C371.632 490.225 394.936 512 423.76 512c13.008 0 25.656-4.549 35.633-12.814 45.384-37.273 74.388-89.591 82.38-146.551l29.668-53.507s44.692-25.442 44.808-25.51c21.692-12.713 29.88-40.065 18.875-62.8zm-338.089-22.229c-19.901-9.937-43.4-11.344-64.482-3.866-8.425 2.989-6.285 15.54 2.675 15.54 32.401 0 57.19 14.542 69.807 40.956 9.012 18.801-19.759 32.856-28.81 13.633l-.052-.107c-6.857-14.022-20.727-22.734-36.194-22.734-22.061 0-40.008 17.943-40.008 39.999 0 24.706 20.767 39.999 40.008 39.999 15.468 0 29.337-8.711 36.194-22.734l.052-.106c9.052-19.227 37.818-5.16 28.805 13.642-11.909 24.935-37.3 41.079-64.747 41.196-4.601-.388-62.246-5.666-84.596-7.716a7.973 7.973 0 0 0-4.319.817L91.615 367.1c-4.477 2.238-9.078-.033-10.774-3.423l-39.983-79.94c-1.879-3.933-.532-8.66 3.076-10.802l52.215-29.721a8.003 8.003 0 0 0 3.039-3.073l37.009-66.747a7.984 7.984 0 0 0 .954-2.991c5.563-49.806 30.03-94.802 68.925-126.724 6.719-5.57 16.887-4.766 22.422 2.108 6.05 7.502 4.4 17.162-2.18 22.619-12.209 10.306-22.541 21.614-30.71 33.609-4.944 7.26 3.828 16.067 11.107 11.121C226.048 100 247.323 91.95 270.033 89.198c8.246-1.085 16.426 4.1 17.779 13.866 1.149 8.695-4.777 16.738-13.782 17.758-14.99 1.808-29.422 6.793-42.896 14.818-7.753 4.617-3.036 16.619 5.803 14.689 23.624-5.166 51.312-1.658 73.985 9.34 19.143 9.569 5.068 38.147-13.887 28.92zm299.029 50.498l-52.211 29.72a8 8 0 0 0-3.039 3.072l-37.011 66.747a7.989 7.989 0 0 0-.954 2.992c-5.562 49.806-30.029 94.801-68.939 126.735-16.035 13.361-36.804-10.996-20.226-24.738 12.21-10.309 22.542-21.616 30.708-33.609 5.036-7.397-3.95-15.986-11.107-11.12-19.333 13.133-40.608 21.183-63.234 23.924-21.228 2.583-24.879-29.259-4.081-31.613 14.99-1.809 29.422-6.794 42.896-14.817 7.754-4.619 3.033-16.619-5.803-14.689-23.621 5.167-51.312 1.659-73.985-9.341-19.179-9.587-4.995-38.163 13.853-28.936 19.908 9.949 43.423 11.365 64.517 3.884 8.441-2.997 6.266-15.54-2.675-15.54-32.402 0-57.191-14.541-69.807-40.956-9.016-18.813 19.765-32.851 28.81-13.633l.052.105c6.856 14.023 20.725 22.735 36.193 22.735 22.061 0 40.009-17.943 40.009-39.999 0-24.707-20.768-39.999-40.009-39.999-15.469 0-29.338 8.711-36.194 22.735l-.051.106c-9.051 19.223-37.821 5.167-28.805-13.643 12.099-25.331 37.434-41.091 66.185-41.195l83.149 7.715a8 8 0 0 0 4.328-.816l59.754-29.993c4.477-2.235 9.079.034 10.772 3.423l39.983 79.941c1.88 3.932.533 8.661-3.078 10.803z" class=""></path></symbol>

  <symbol id="mobile-alt" viewBox="0 0 320 512"><path fill="currentColor" d="M272 0H48C21.5 0 0 21.5 0 48v416c0 26.5 21.5 48 48 48h224c26.5 0 48-21.5 48-48V48c0-26.5-21.5-48-48-48zM160 480c-17.7 0-32-14.3-32-32s14.3-32 32-32 32 14.3 32 32-14.3 32-32 32zm112-108c0 6.6-5.4 12-12 12H60c-6.6 0-12-5.4-12-12V60c0-6.6 5.4-12 12-12h200c6.6 0 12 5.4 12 12v312z" class=""></path></symbol>

  <symbol id="sync-alt" viewBox="0 0 512 512"><path fill="currentColor" d="M483.515 28.485L431.35 80.65C386.475 35.767 324.485 8 256 8 123.228 8 14.824 112.338 8.31 243.493 7.971 250.311 13.475 256 20.301 256h28.045c6.353 0 11.613-4.952 11.973-11.294C66.161 141.649 151.453 60 256 60c54.163 0 103.157 21.923 138.614 57.386l-54.128 54.129c-7.56 7.56-2.206 20.485 8.485 20.485H492c6.627 0 12-5.373 12-12V36.971c0-10.691-12.926-16.045-20.485-8.486zM491.699 256h-28.045c-6.353 0-11.613 4.952-11.973 11.294C445.839 370.351 360.547 452 256 452c-54.163 0-103.157-21.923-138.614-57.386l54.128-54.129c7.56-7.56 2.206-20.485-8.485-20.485H20c-6.627 0-12 5.373-12 12v143.029c0 10.691 12.926 16.045 20.485 8.485L80.65 431.35C125.525 476.233 187.516 504 256 504c132.773 0 241.176-104.338 247.69-235.493.339-6.818-5.165-12.507-11.991-12.507z" class=""></path></symbol>

  <symbol id="car-bump" viewBox="0 0 576 512"><path fill="currentColor" d="M101.98 308.12c-17.69 8.02-23.99 24.81-15.77 41.96 8.22 17.15 25.5 23.24 43.18 15.22 17.69-8.02 45.59-17.2 37.37-34.35-8.22-17.16-47.09-30.86-64.78-22.83zm235.83-106.97c-17.69 8.02-31.88 45.79-23.66 62.94 8.22 17.15 33.38 2.26 51.07-5.76 17.69-8.02 23.99-24.81 15.77-41.96-8.22-17.15-25.5-23.24-43.18-15.22zM116.19 450.03l324.26-147.08 10.31 21.51c5.69 11.88 20.21 17.01 32.42 11.48l14.74-6.69c12.21-5.54 17.49-19.66 11.8-31.53l-44.67-93.19-13.75-28.67c-14.02-29.25-41.45-48.16-71.83-53.3l-76.15-69.24c-24.24-22.04-59.82-27.54-89.89-13.9L54.57 111.46C24.5 125.1 5.96 155.15 7.73 187.38l5.58 101.25c-15.48 25.94-18.22 58.54-4.19 87.79l58.42 121.86c5.69 11.88 20.21 17.02 32.42 11.48l14.74-6.69c12.21-5.54 17.49-19.66 11.8-31.53l-10.31-21.51zm-41-295.56l158.85-72.05c12.09-5.49 26.21-3.3 35.96 5.56l47.98 43.62-122.81 55.71-135.2 61.32-3.52-63.79c-.71-12.96 6.64-24.88 18.74-30.37zm20.38 252.55c-8.13 3.69-17.82.25-21.61-7.65l-20.62-43.01c-11.37-23.72-.78-52.01 23.6-63.07l265.3-120.33c24.38-11.06 53.47-.76 64.83 22.95l20.62 43.01c3.79 7.91.26 17.34-7.87 21.02L95.57 407.02zM464 384c-61.75 0-112 46.65-112 104 0 13.25 10.75 24 24 24s24-10.75 24-24c0-30.87 28.72-56 64-56s64 25.12 64 56c0 13.25 10.75 24 24 24s24-10.75 24-24c0-57.34-50.25-104-112-104z" class=""></path></symbol>

  <symbol id="play" viewBox="0 0 448 512"><path fill="currentColor" d="M424.4 214.7L72.4 6.6C43.8-10.3 0 6.1 0 47.9V464c0 37.5 40.7 60.1 72.4 41.3l352-208c31.4-18.5 31.5-64.1 0-82.6z" class=""></path></symbol>
  
</svg>